PathFileType	4	(X/Y/Z)	./resultDataOpenSim/trcMotMarkerGrf/sub10/qtm-02-05.trc
DataRate	CameraRate	NumFrames	NumMarkers	Units	OrigDataRate	OrigDataStartFrame	OrigNumFrames
250.000000	250.000000	14	24	m	250.000000	66	523
Frame#	Time	L.Toe.Tip			R.Toe.Tip			L.Ankle.Lat			R.Ankle.Lat			L.Ankle.Med			R.Ankle.Med			L.Heel			R.Heel			L.Knee.Lat			R.Knee.Lat			L.Knee.Med			R.Knee.Med			L.Thigh.Upper			R.Thigh.Upper			L.ASIS			R.ASIS			V.Sacral			L.Acromium			R.Acromium			C7			L.Elbow			R.Elbow			L.Wrist.Lat			R.Wrist.Lat
		X1	Y1	Z1	X2	Y2	Z2	X3	Y3	Z3	X4	Y4	Z4	X5	Y5	Z5	X6	Y6	Z6	X7	Y7	Z7	X8	Y8	Z8	X9	Y9	Z9	X10	Y10	Z10	X11	Y11	Z11	X12	Y12	Z12	X13	Y13	Z13	X14	Y14	Z14	X15	Y15	Z15	X16	Y16	Z16	X17	Y17	Z17	X18	Y18	Z18	X19	Y19	Z19	X20	Y20	Z20	X21	Y21	Z21	X22	Y22	Z22	X23	Y23	Z23	X24	Y24	Z24

66	0.26	-1.4129431	0.064544551	-0.084630549	-0.715785	0.041092216	0.084734043	-1.423337	0.20147303	-0.09864678	-0.85569511	0.05282402	0.12008348	-1.3967013	0.18858072	-0.019810881	-0.83987307	0.080881354	0.037396204	-1.4654908	0.24341284	-0.039471329	-0.90656044	0.028411488	0.071997148	-1.1129706	0.41491033	-0.13622406	-0.84211984	0.45256569	0.15616595	-1.0883679	0.36924142	-0.025405362	-0.84697473	0.45981766	0.028576144	-1.0273796	0.78203312	-0.16133999	-0.94341023	0.86024033	0.21350626	-0.94919722	0.89194926	-0.1126725	-0.89577033	0.93806565	0.11860285	-1.1199756	0.93321	0.04243337	-0.98776988	1.3896525	-0.13352512	-0.99331499	1.3817091	0.1894929	-1.0757326	1.4144753	0.025026448	-1.0190075	1.0412745	-0.19044935	-1.1481857	1.0783209	0.22774623	-0.79714711	0.92780734	-0.16053892	-1.1382763	0.85663894	0.32402912
67	0.264	-1.4049148	0.067469243	-0.083461679	-0.7157372	0.041029989	0.08468164	-1.4144642	0.20414346	-0.098293139	-0.85567263	0.052834887	0.12006439	-1.3866122	0.19143816	-0.019985907	-0.83980674	0.080874297	0.037365754	-1.456596	0.24667492	-0.039987922	-0.90657586	0.028422775	0.071995818	-1.1026036	0.41445947	-0.13622877	-0.8388238	0.45252165	0.15609219	-1.0776375	0.36897947	-0.025337113	-0.84488563	0.45980941	0.028643765	-1.0214221	0.78217766	-0.16061449	-0.93866932	0.86082452	0.21398103	-0.94394012	0.89265721	-0.11223258	-0.89064579	0.93861129	0.11897868	-1.1147871	0.93367797	0.042954186	-0.98255647	1.3902968	-0.13318452	-0.98811532	1.3823847	0.18990833	-1.0705819	1.4151953	0.025417258	-1.0146912	1.0420953	-0.19024675	-1.1413807	1.0778126	0.22827795	-0.79332757	0.92715082	-0.16067922	-1.1281322	0.85583965	0.32427605
68	0.268	-1.3961891	0.070288703	-0.082244237	-0.71571024	0.040977626	0.084626212	-1.4054241	0.20667994	-0.097915888	-0.85567063	0.052849016	0.1200546	-1.3758243	0.1944193	-0.020215102	-0.83976116	0.080872846	0.037347683	-1.4477409	0.24986718	-0.040818459	-0.90660695	0.028432998	0.071995494	-1.0922286	0.41407303	-0.13616959	-0.83554273	0.45247692	0.15602673	-1.0670139	0.36894633	-0.025149836	-0.84275786	0.45985608	0.028671397	-1.0155613	0.78239397	-0.15989343	-0.93397844	0.86137327	0.21442264	-0.93866489	0.8934867	-0.1118061	-0.88549311	0.93913205	0.1194041	-1.1096311	0.93415119	0.043441971	-0.97732266	1.3909554	-0.1328628	-0.98291468	1.383085	0.19030968	-1.0654363	1.4159495	0.02579569	-1.0103697	1.0429217	-0.19004821	-1.1346593	1.0772747	0.22849971	-0.78947699	0.92647504	-0.16080234	-1.1178221	0.85509202	0.32447573
69	0.272	-1.3868353	0.072954004	-0.080979304	-0.71570025	0.040931084	0.084558421	-1.3961909	0.20906555	-0.097494141	-0.85568655	0.052868988	0.12004819	-1.3654002	0.19733612	-0.020183021	-0.83973616	0.080877481	0.037334766	-1.4388987	0.25283275	-0.041555172	-0.90665318	0.02844208	0.071993451	-1.0818921	0.41374472	-0.13608271	-0.8324567	0.45247846	0.15600001	-1.0564231	0.3691261	-0.024884416	-0.84065822	0.4599344	0.028705746	-1.0097979	0.78268534	-0.15917834	-0.92927165	0.86188321	0.21485024	-0.93342338	0.89440834	-0.11142826	-0.88028859	0.93962434	0.11989617	-1.1045205	0.93463996	0.043853486	-0.97208254	1.391632	-0.13255361	-0.97770625	1.3838123	0.19069037	-1.0603054	1.4167279	0.026152261	-1.006028	1.0437598	-0.18983215	-1.1280577	1.0766954	0.22833149	-0.78573367	0.92575623	-0.1609437	-1.1075112	0.85438253	0.32455533
70	0.276	-1.3769448	0.075452852	-0.079659373	-0.71570232	0.04088938	0.084485885	-1.3867788	0.21131372	-0.097005448	-0.85571599	0.052895132	0.1200404	-1.3556151	0.20011018	-0.019818831	-0.83972132	0.080885483	0.037319714	-1.4299722	0.25543835	-0.042144401	-0.90670643	0.028450072	0.071988431	-1.0715243	0.41350195	-0.13595856	-0.82963014	0.45251928	0.1560227	-1.0455857	0.36953145	-0.024652874	-0.83855032	0.46001732	0.028733698	-1.0041245	0.78305779	-0.15848996	-0.92453427	0.86234812	0.2152577	-0.92829288	0.89538105	-0.11114211	-0.87506092	0.9401015	0.12042613	-1.0994921	0.9351532	0.044119836	-0.96685823	1.3923332	-0.13225537	-0.97249323	1.3845665	0.19104777	-1.0551963	1.4175243	0.026489329	-1.0016607	1.0446153	-0.18958821	-1.1214422	1.0760914	0.22805597	-0.78225049	0.92497332	-0.16116709	-1.097256	0.8536941	0.32449593
71	0.28	-1.3666351	0.077778844	-0.078285346	-0.71570965	0.040853005	0.084421	-1.3772087	0.21345724	-0.096450301	-0.85575153	0.052925687	0.12002914	-1.3460186	0.2027852	-0.019254951	-0.83970156	0.080890152	0.037296022	-1.4208448	0.25766391	-0.042735789	-0.90675504	0.02845778	0.071979635	-1.061036	0.41339427	-0.13578516	-0.82700977	0.45255947	0.1561016	-1.0341134	0.37019548	-0.024603324	-0.83632774	0.46009261	0.028702931	-0.99853785	0.78351183	-0.15784202	-0.91979097	0.86276134	0.21562046	-0.92329663	0.89638219	-0.11095297	-0.86984804	0.94056922	0.12096724	-1.0945715	0.93568888	0.044200487	-0.96166837	1.3930601	-0.13196772	-0.96728398	1.3853462	0.1913842	-1.0501118	1.4183378	0.026813832	-0.99724704	1.0454879	-0.18929081	-1.1146334	1.0755035	0.22810546	-0.77901832	0.92413072	-0.1614917	-1.0870204	0.85302996	0.32431303
72	0.284	-1.3560152	0.079925306	-0.076874034	-0.71571347	0.040821264	0.084369615	-1.367413	0.2155244	-0.095886353	-0.85578077	0.052956437	0.12001233	-1.3361977	0.20541351	-0.01862815	-0.83966379	0.080884964	0.037259955	-1.4115027	0.25960652	-0.043291489	-0.90679097	0.028467801	0.071963993	-1.0504181	0.41345583	-0.13558088	-0.82451081	0.4525684	0.15624297	-1.0220061	0.3710967	-0.024752713	-0.83393732	0.46016121	0.028597185	-0.99304862	0.78403995	-0.15724122	-0.91506091	0.86312185	0.21591764	-0.91840757	0.8974085	-0.11084073	-0.86467848	0.94102276	0.12150752	-1.0897342	0.93624021	0.044149655	-0.95651585	1.3938044	-0.13168803	-0.96207598	1.3861486	0.19169655	-1.0450517	1.419167	0.027128114	-0.99277639	1.0463776	-0.1889384	-1.1076283	1.0749679	0.22866008	-0.77589279	0.92325323	-0.1618777	-1.076745	0.85239911	0.32402953
73	0.288	-1.3451529	0.081894668	-0.075442624	-0.71570553	0.040791444	0.084327159	-1.357231	0.21751309	-0.095417037	-0.85579007	0.052982946	0.11998684	-1.3260511	0.20798232	-0.018003513	-0.83960289	0.080867841	0.037211908	-1.4020283	0.26139789	-0.043600167	-0.90681212	0.028483511	0.071937724	-1.0397201	0.41367781	-0.13536452	-0.82206226	0.4525336	0.15642799	-1.0100261	0.37209404	-0.024852643	-0.83145704	0.46022355	0.028477782	-0.98767551	0.78463811	-0.15670053	-0.91033943	0.86345009	0.21615025	-0.91359237	0.89846071	-0.11079491	-0.85958916	0.94146248	0.1220326	-1.0849359	0.93680387	0.044073641	-0.95139198	1.394553	-0.13141623	-0.95686898	1.3869696	0.19198684	-1.0400165	1.4200079	0.027429006	-0.98829674	1.0472833	-0.18858927	-1.1005761	1.074497	0.22964887	-0.77279322	0.92236161	-0.16228932	-1.0663573	0.85180191	0.32367943
74	0.292	-1.3340884	0.083687189	-0.073997967	-0.71568127	0.040761282	0.084283937	-1.3466334	0.21937891	-0.095054747	-0.85577416	0.053005097	0.11995066	-1.3156405	0.21042095	-0.017385864	-0.83952216	0.080841194	0.037154522	-1.3924662	0.26308571	-0.043566711	-0.90681899	0.028506701	0.071898641	-1.0289844	0.41402194	-0.13512878	-0.81963449	0.45245109	0.15660751	-0.99906848	0.3730193	-0.02458876	-0.82903226	0.46027118	0.028425336	-0.98242826	0.7853225	-0.15623701	-0.90560644	0.86377635	0.21633883	-0.90883031	0.89953702	-0.11081925	-0.85465338	0.94190594	0.12250867	-1.0801642	0.93737559	0.044027115	-0.94629346	1.3952967	-0.13115926	-0.95167766	1.3878046	0.19227208	-1.0350081	1.4208556	0.027716808	-0.98388713	1.0482012	-0.1883188	-1.0935698	1.0740691	0.2310003	-0.76974972	0.92146463	-0.16272244	-1.055813	0.85123748	0.32330285
75	0.296	-1.3228612	0.085286601	-0.072546816	-0.71564255	0.040730952	0.084234661	-1.3358758	0.22103978	-0.094628918	-0.85574074	0.053027286	0.11990418	-1.3050792	0.21264515	-0.016746806	-0.83942847	0.080808946	0.037089667	-1.3827578	0.26461264	-0.043284951	-0.90681225	0.028537055	0.071846327	-1.0182346	0.41445516	-0.1348529	-0.8172501	0.45232189	0.15673641	-0.98920168	0.37384067	-0.023902355	-0.82673379	0.46029114	0.028455692	-0.97729569	0.78613679	-0.15586161	-0.90082839	0.86411368	0.21651125	-0.90411277	0.90063173	-0.11091671	-0.84994162	0.94237874	0.1229026	-1.0754216	0.93795014	0.044015046	-0.9412293	1.3960363	-0.13092116	-0.94650751	1.3886488	0.19255989	-1.0300273	1.4217074	0.028000167	-0.97957905	1.04913	-0.18814252	-1.0865351	1.0736299	0.23266196	-0.76674842	0.92056512	-0.16316038	-1.0451502	0.85071393	0.32292062
76	0.3	-1.3114839	0.08668544	-0.071118722	-0.71559751	0.04070237	0.084182553	-1.3252291	0.22241515	-0.093969841	-0.85570367	0.053052231	0.11984898	-1.2944799	0.21459798	-0.016058555	-0.83932991	0.080773626	0.037019118	-1.3728008	0.26590117	-0.042883417	-0.90679522	0.028573837	0.071783328	-1.0074872	0.41496374	-0.13452467	-0.81495645	0.45215725	0.1568063	-0.9797261	0.37466861	-0.022979108	-0.82452277	0.46027503	0.028525126	-0.97225749	0.78712326	-0.15556916	-0.89594842	0.8644625	0.21669837	-0.89943438	0.90173782	-0.11107922	-0.84540716	0.94289181	0.12323408	-1.0706783	0.93853243	0.044081717	-0.93621564	1.3967842	-0.13069029	-0.94134495	1.389501	0.19283665	-1.0250742	1.4225633	0.028285646	-0.97534772	1.0500672	-0.18800517	-1.0792327	1.0731262	0.23446112	-0.76364572	0.91966953	-0.16354584	-1.0344181	0.8502453	0.32252131
77	0.304	-1.299914	0.087911324	-0.069771989	-0.71555675	0.040678023	0.084135576	-1.3146484	0.22348303	-0.093122284	-0.85567454	0.053077468	0.11978758	-1.2838688	0.21626907	-0.015323201	-0.8392361	0.080736322	0.03694602	-1.3625174	0.2669193	-0.042446681	-0.90677529	0.028615406	0.071716566	-0.99674043	0.41554708	-0.13415033	-0.81279643	0.45197834	0.15684228	-0.96992089	0.3756301	-0.022032978	-0.82233793	0.46021963	0.028589292	-0.96730952	0.78826429	-0.15533099	-0.89091652	0.86482963	0.21692954	-0.89478774	0.90285178	-0.11129021	-0.84088575	0.94344095	0.12357298	-1.0658628	0.93913572	0.044353	-0.93126774	1.3975557	-0.13045187	-0.93618936	1.3903668	0.19309693	-1.0201465	1.4234227	0.028569021	-0.97116109	1.0510088	-0.18784899	-1.0713361	1.0725418	0.23616784	-0.76035633	0.91878975	-0.16385003	-1.0235912	0.84984153	0.32207668
78	0.308	-1.2881084	0.088996243	-0.068546241	-0.71552915	0.040659623	0.08410068	-1.303894	0.22428679	-0.092259572	-0.85565957	0.053099261	0.11972497	-1.2731943	0.21767718	-0.014560685	-0.83915773	0.080699194	0.036873383	-1.3518906	0.2676727	-0.042023291	-0.90676099	0.0286571	0.071653423	-0.98596285	0.41620995	-0.13375474	-0.81080769	0.45180916	0.15688427	-0.95953755	0.37677203	-0.02118973	-0.82016055	0.46012379	0.028633641	-0.96246108	0.78948503	-0.15511221	-0.8857636	0.86521831	0.21720417	-0.89017277	0.90397467	-0.11153485	-0.83625665	0.94401909	0.12396191	-1.0609142	0.93976725	0.044938922	-0.92638906	1.3983554	-0.13020955	-0.93106701	1.3912495	0.1933568	-1.0152387	1.4242849	0.028845165	-0.96700437	1.0519578	-0.18766898	-1.0627737	1.0718986	0.23763679	-0.75705823	0.91792236	-0.16414665	-1.0126144	0.84950271	0.32156693
79	0.312	-1.2760869	0.089935693	-0.067417856	-0.71552039	0.040646594	0.084081908	-1.2928428	0.22488168	-0.091480354	-0.85565865	0.053116842	0.11966744	-1.2624171	0.2188389	-0.013776969	-0.83910487	0.080665479	0.036803517	-1.3410159	0.26817992	-0.041597119	-0.90675883	0.028693506	0.071595784	-0.97511482	0.41694897	-0.13336701	-0.80902445	0.45166998	0.15697039	-0.94880546	0.37804699	-0.020461576	-0.81800463	0.45999158	0.02866548	-0.95770711	0.79072701	-0.15490712	-0.8806274	0.86560972	0.21746229	-0.88560999	0.90510674	-0.11180932	-0.83153406	0.94461987	0.12438804	-1.0558812	0.94042616	0.045749972	-0.9215676	1.3991753	-0.12997853	-0.92599352	1.3921423	0.19362629	-1.0103481	1.4251512	0.029117011	-0.96287664	1.0529238	-0.18749658	-1.0540482	1.0712407	0.23878045	-0.75402774	0.91704257	-0.16454056	-1.0014674	0.84922516	0.3209898
